<svg width="24" hei="24" viewBox="0 0 24 24" fill="none" xmlns="http://www.w3.org/2000/svg">

<path  stroke="#0F172A" d="M9.59353 3.94014C9.68394 3.39768 10.1533 3.00009 10.7032 3.00009H13.2972C13.8471 3.00009 14.3165 3.39768 14.4069 3.94014L14.6204 5.22119C14.6827 5.59523 14.9327 5.9068 15.2645 6.09045C15.3386 6.13151 15.412 6.17393 15.4844 6.21766C15.8094 6.41393 16.2048 6.47495 16.5603 6.34175L17.7772 5.88587C18.2922 5.69293 18.8712 5.9006 19.1461 6.37687L20.4431 8.6233C20.7181 9.09957 20.6084 9.70482 20.1839 10.0544L19.1795 10.8812C18.887 11.122 18.742 11.4938 18.749 11.8726C18.7498 11.915 18.7502 11.9575 18.7502 12.0001C18.7502 12.0427 18.7498 12.0852 18.749 12.1275C18.742 12.5064 18.887 12.8782 19.1795 13.119L20.1839 13.9458C20.6084 14.2953 20.7181 14.9006 20.4431 15.3769L19.1461 17.6233C18.8712 18.0996 18.2922 18.3072 17.7772 18.1143L16.5603 17.6584C16.2048 17.5252 15.8094 17.5862 15.4844 17.7825C15.412 17.8263 15.3386 17.8687 15.2645 17.9097C14.9327 18.0934 14.6827 18.4049 14.6204 18.779L14.4069 20.06C14.3165 20.6025 13.8471 21.0001 13.2972 21.0001H10.7032C10.1533 21.0001 9.68394 20.6025 9.59353 20.06L9.38002 18.779C9.31768 18.4049 9.06771 18.0934 8.73594 17.9097C8.66176 17.8687 8.58844 17.8263 8.51601 17.7825C8.19098 17.5863 7.79565 17.5252 7.44008 17.6584L6.22322 18.1143C5.70822 18.3072 5.12923 18.0996 4.85426 17.6233L3.55728 15.3769C3.28231 14.9006 3.39196 14.2954 3.81654 13.9458L4.82089 13.119C5.1134 12.8782 5.2584 12.5064 5.25138 12.1276C5.2506 12.0852 5.2502 12.0427 5.2502 12.0001C5.2502 11.9575 5.2506 11.915 5.25138 11.8726C5.2584 11.4938 5.1134 11.122 4.82089 10.8812L3.81654 10.0544C3.39196 9.70484 3.28231 9.09958 3.55728 8.62332L4.85426 6.37688C5.12923 5.90061 5.70822 5.69295 6.22321 5.88588L7.44007 6.34176C7.79563 6.47496 8.19096 6.41394 8.516 6.21767C8.58843 6.17393 8.66176 6.13151 8.73594 6.09045C9.06771 5.9068 9.31768 5.59523 9.38002 5.22119L9.59353 3.94014Z" stroke-width="1.5" stroke-linecap="round" stroke-linejoin="round"/>
<path  stroke="#0F172A" d="M15 12C15 13.6569 13.6568 15 12 15C10.3431 15 8.99997 13.6569 8.99997 12C8.99997 10.3432 10.3431 9.00001 12 9.00001C13.6568 9.00001 15 10.3432 15 12Z"  stroke-width="1.5" stroke-linecap="round" stroke-linejoin="round"/>

</svg>
