<svg width="24" height="24" viewBox="0 0 24 24" xmlns="http://www.w3.org/2000/svg">
<rect x="1" y="3" width="12" height="3" rx="1.5" />
<rect x="1" y="10" width="8.5" height="3" rx="1.5" />
<rect x="1" y="17" width="10" height="3" rx="1.5" />
<rect x="14" y="3" width="5" height="3" rx="1.5" />
<rect x="14" y="10" width="5" height="3" rx="1.5" />
<rect x="14" y="17" width="5" height="3" rx="1.5" />
<path fill-rule="evenodd" clip-rule="evenodd" d="M21.5 17C20.6716 17 20 17.6716 20 18.5C20 19.3284 20.6716 20 21.5 20C22.3284 20 23 19.3284 23 18.5C23 17.6716 22.3284 17 21.5 17ZM21.5 19.25C21.9142 19.25 22.25 18.9142 22.25 18.5C22.25 18.0858 21.9142 17.75 21.5 17.75C21.0858 17.75 20.75 18.0858 20.75 18.5C20.75 18.9142 21.0858 19.25 21.5 19.25Z" />
<path fill-rule="evenodd" clip-rule="evenodd" d="M21.5 10C20.6716 10 20 10.6716 20 11.5C20 12.3284 20.6716 13 21.5 13C22.3284 13 23 12.3284 23 11.5C23 10.6716 22.3284 10 21.5 10ZM21.5 12.25C21.9142 12.25 22.25 11.9142 22.25 11.5C22.25 11.0858 21.9142 10.75 21.5 10.75C21.0858 10.75 20.75 11.0858 20.75 11.5C20.75 11.9142 21.0858 12.25 21.5 12.25Z" />
<path fill-rule="evenodd" clip-rule="evenodd" d="M21.5 3C20.6716 3 20 3.67157 20 4.5C20 5.32843 20.6716 6 21.5 6C22.3284 6 23 5.32843 23 4.5C23 3.67157 22.3284 3 21.5 3ZM21.5 5.25C21.9142 5.25 22.25 4.91421 22.25 4.5C22.25 4.08579 21.9142 3.75 21.5 3.75C21.0858 3.75 20.75 4.08579 20.75 4.5C20.75 4.91421 21.0858 5.25 21.5 5.25Z" />
</svg>
